<svg width="32" height="32" viewBox="0 0 32 32" fill="none" xmlns="http://www.w3.org/2000/svg">
    <polygon fill="#232426" stroke="#232426" stroke-width="4" stroke-linejoin="round" points="10 2 2 10 2 30 22 30 22 2"/>
    <polygon fill="#CED0D6" stroke="none" points="10 2 2 10 10 10"/>
    <polygon fill="#CED0D6" points="12 2 12 12 2 12 2 30 22 30 22 2"/>
    <circle fill="#232426" cx="22" cy="22" r="10"/>
    <path fill="#548AF7" stroke="none" d="m 21.987307,14.2336 c -4.062309,0 -7.388779,3.145387 -7.705829,7.143947 l 4.143674,1.721707 c 0.35096,-0.241814 0.774849,-0.38144 1.232609,-0.38144 0.04069,0 0.08139,0.0017 0.12208,0.0034 l 1.842933,-2.6856 c 0,-0.01195 0,-0.02555 0,-0.03749 0,-1.614395 1.308907,-2.929089 2.91616,-2.929089 1.607307,0 2.91616,1.314694 2.91616,2.929089 0,1.614453 -1.308853,2.92912 -2.91616,2.92912 -0.02203,0 -0.04405,0 -0.06613,-0.0017 l -2.6296,1.885227 c 0.0017,0.03403 0.0017,0.06981 0.0017,0.10384 0,1.212533 -0.981653,2.19856 -2.1888,2.19856 -1.059659,0 -1.944683,-0.75952 -2.146443,-1.765974 l -2.961947,-1.231253 c 0.917238,3.259467 3.899531,5.650454 7.439643,5.650454 4.270827,0 7.731254,-3.477494 7.731254,-7.765547 0,-4.289787 -3.462134,-7.767254 -7.731254,-7.767254 z"/>
    <path fill="#548AF7" stroke="none" d="m 19.127094,26.018294 -0.94944,-0.393387 c 0.16785,0.352533 0.459466,0.647147 0.846027,0.808907 0.83584,0.34912 1.79888,-0.04939 2.14816,-0.88896 0.16784,-0.406987 0.169546,-0.85488 0.0017,-1.261867 -0.166133,-0.40704 -0.481493,-0.725493 -0.88672,-0.89408 -0.401813,-0.168587 -0.832427,-0.16176 -1.210507,-0.01872 l 0.981654,0.406987 c 0.61712,0.25888 0.908746,0.969013 0.65104,1.588906 -0.257707,0.61648 -0.964694,0.909387 -1.581867,0.652214 z"/>
    <path fill="#548AF7" stroke="none" d="m 26.481814,19.99824 c 0,-1.076266 -0.871413,-1.951621 -1.942987,-1.951621 -1.07152,0 -1.942986,0.875355 -1.942986,1.951621 0,1.076267 0.871466,1.951574 1.942986,1.951574 1.071574,0 1.942987,-0.875307 1.942987,-1.951574 z m -3.39936,-0.0034 c 0,-0.808907 0.654453,-1.466267 1.459787,-1.466267 0.80704,0 1.459786,0.655654 1.459786,1.466267 0,0.810613 -0.652746,1.46624 -1.459786,1.46624 -0.80704,0 -1.459787,-0.655627 -1.459787,-1.46624 z"/>
</svg>
