<svg width="32" height="32" viewBox="0 0 16 16" fill="none" xmlns="http://www.w3.org/2000/svg">
    <path fill="#E35252" d="M 5.25 1.7363281 A 1.5 1.5 0 0 0 4.5 1.9375 A 1.5 1.5 0 0 0 3.9511719 3.9863281 A 1.5 1.5 0 0 0 4.1601562 4.2597656 L 2.8417969 6.5429688 A 1.5 1.5 0 0 0 2.5 6.5 A 1.5 1.5 0 0 0 1 8 A 1.5 1.5 0 0 0 2.5 9.5 A 1.5 1.5 0 0 0 2.8417969 9.4570312 L 4.1601562 11.740234 A 1.5 1.5 0 0 0 3.9511719 12.013672 A 1.5 1.5 0 0 0 4.5 14.0625 A 1.5 1.5 0 0 0 6.5488281 13.513672 A 1.5 1.5 0 0 0 6.6835938 13.195312 L 9.3183594 13.195312 A 1.5 1.5 0 0 0 9.4511719 13.513672 A 1.5 1.5 0 0 0 11.5 14.0625 A 1.5 1.5 0 0 0 12.048828 12.013672 A 1.5 1.5 0 0 0 11.839844 11.740234 L 13.158203 9.4570312 A 1.5 1.5 0 0 0 13.5 9.5 A 1.5 1.5 0 0 0 15 8 A 1.5 1.5 0 0 0 13.5 6.5 A 1.5 1.5 0 0 0 13.158203 6.5429688 L 11.841797 4.2617188 A 1.5 1.5 0 0 0 12.048828 3.9863281 A 1.5 1.5 0 0 0 11.5 1.9375 A 1.5 1.5 0 0 0 9.4511719 2.4863281 A 1.5 1.5 0 0 0 9.3183594 2.8046875 L 6.6855469 2.8046875 A 1.5 1.5 0 0 0 6.5488281 2.4863281 A 1.5 1.5 0 0 0 5.25 1.7363281 z M 6.6855469 3.6699219 L 9.328125 3.6699219 A 1.5 1.5 0 0 0 9.6113281 4.2089844 L 8.2734375 6.5253906 A 1.5 1.5 0 0 0 8 6.5 A 1.5 1.5 0 0 0 7.7285156 6.5292969 L 6.390625 4.2109375 A 1.5 1.5 0 0 0 6.6855469 3.6699219 z M 4.9140625 4.6855469 A 1.5 1.5 0 0 0 5.5214844 4.7089844 L 6.859375 7.0273438 A 1.5 1.5 0 0 0 6.5898438 7.5 L 3.9140625 7.5 A 1.5 1.5 0 0 0 3.5878906 6.9824219 L 4.9140625 4.6855469 z M 11.087891 4.6875 L 12.414062 6.984375 A 1.5 1.5 0 0 0 12.089844 7.5 L 9.4140625 7.5 A 1.5 1.5 0 0 0 9.140625 7.0253906 L 10.476562 4.7109375 A 1.5 1.5 0 0 0 11.087891 4.6875 z M 8 7.5 A 0.5 0.5 0 0 1 8.5 8 A 0.5 0.5 0 0 1 8 8.5 A 0.5 0.5 0 0 1 7.5 8 A 0.5 0.5 0 0 1 8 7.5 z M 3.9101562 8.5 L 6.5898438 8.5 A 1.5 1.5 0 0 0 6.859375 8.9726562 L 5.5214844 11.291016 A 1.5 1.5 0 0 0 4.9140625 11.314453 L 3.5859375 9.015625 A 1.5 1.5 0 0 0 3.9101562 8.5 z M 9.4101562 8.5 L 12.089844 8.5 A 1.5 1.5 0 0 0 12.414062 9.015625 L 11.085938 11.314453 A 1.5 1.5 0 0 0 10.478516 11.291016 L 9.140625 8.9726562 A 1.5 1.5 0 0 0 9.4101562 8.5 z M 7.7285156 9.4707031 A 1.5 1.5 0 0 0 8 9.5 A 1.5 1.5 0 0 0 8.2714844 9.4707031 L 9.6113281 11.791016 A 1.5 1.5 0 0 0 9.328125 12.330078 L 6.6835938 12.330078 A 1.5 1.5 0 0 0 6.3886719 11.791016 L 7.7285156 9.4707031 z " />
</svg>
