<svg width="16" height="16" viewBox="0 0 16 16" fill="none" xmlns="http://www.w3.org/2000/svg">
    <g fill="none" fill-rule="evenodd">
        <polygon fill="#F26522" fill-opacity=".7" points="1 16 16 16 16 9 1 9"/>
        <polygon fill="#9AA7B0" fill-opacity=".8" points="7 1 3 5 7 5"/>
        <polygon fill="#9AA7B0" fill-opacity=".8" points="8 1 8 6 3 6 3 8 13 8 13 1"/>
        <path fill="#231F20" fill-opacity=".7" d="m 2,10 l 1.5,5 h 1 l 1.5,-5 h -1.1 l -0.9,3.5 -0.9,-3.5 h -1.1 z"/>
        <path fill="#231F20" fill-opacity=".7" d="m 7,10 v 5 h 1.5 a 2.5,2.5 0 0 0 0,-5 h -1.5 z m 1,1 v 3 h 0.5 a 1.5,1.5 0 0 0 0,-3 h -0.5 z"/>
        <path fill="#231F20" fill-opacity=".7" d="m 12,10 v 5 h 1 v -2 h 1.5 v -1 h -1.5 v -1 h 2 v -1 h -3 z"/>
    </g>
</svg>
